HIERARCHY
ROOT Hips
{
	OFFSET -14.64140 90.27770 -84.91600
	CHANNELS 6 Xposition Yposition Zposition Zrotation Xrotation Yrotation
	JOINT Spine
	{
		OFFSET 0.00000 13.20850 -1.60436
		CHANNELS 3 Zrotation Xrotation Yrotation
		JOINT Spine1
		{
			OFFSET 0.00000 8.61716 0.00000
			CHANNELS 3 Zrotation Xrotation Yrotation
			JOINT Spine2
			{
				OFFSET 0.00000 8.61717 0.00000
				CHANNELS 3 Zrotation Xrotation Yrotation
				JOINT Spine3
				{
					OFFSET 0.00000 8.61717 0.00000
					CHANNELS 3 Zrotation Xrotation Yrotation
					JOINT Neck
					{
						OFFSET 0.00000 11.07920 1.10792
						CHANNELS 3 Zrotation Xrotation Yrotation
						JOINT Neck1
						{
							OFFSET 0.00000 7.08032 0.00000
							CHANNELS 3 Zrotation Xrotation Yrotation
							JOINT Head
							{
								OFFSET 0.00000 7.08031 0.00000
								CHANNELS 3 Zrotation Xrotation Yrotation
								End site
								{
									OFFSET 0.00000 0.00000 0.00000
								}
							}
						}
					}
					JOINT RightShoulder
					{
						OFFSET -0.01000 7.91373 5.19711
						CHANNELS 3 Zrotation Xrotation Yrotation
						JOINT RightArm
						{
							OFFSET -18.41580 0.00000 0.00000
							CHANNELS 3 Zrotation Xrotation Yrotation
							JOINT RightForeArm
							{
								OFFSET -29.11090 0.00000 0.00000
								CHANNELS 3 Zrotation Xrotation Yrotation
								JOINT RightHand
								{
									OFFSET -24.65040 0.00000 0.00000
									CHANNELS 3 Zrotation Xrotation Yrotation
									JOINT RightHandThumb1
									{
										OFFSET -5.35114 -0.85590 3.97906
										CHANNELS 3 Zrotation Xrotation Yrotation
										JOINT RightHandThumb2
										{
											OFFSET -4.52789 0.00000 0.00000
											CHANNELS 3 Zrotation Xrotation Yrotation
											JOINT RightHandThumb3
											{
												OFFSET -2.46976 0.00000 0.00000
												CHANNELS 3 Zrotation Xrotation Yrotation
												End site
												{
													OFFSET 0.00000 0.00000 0.00000
												}
											}
										}
									}
									JOINT RightHandIndex1
									{
										OFFSET -14.26970 0.00000 2.88139
										CHANNELS 3 Zrotation Xrotation Yrotation
										JOINT RightHandIndex2
										{
											OFFSET -5.48836 0.00000 0.00000
											CHANNELS 3 Zrotation Xrotation Yrotation
											JOINT RightHandIndex3
											{
												OFFSET -3.01859 0.00000 0.00000
												CHANNELS 3 Zrotation Xrotation Yrotation
												End site
												{
													OFFSET 0.00000 0.00000 0.00000
												}
											}
										}
									}
									JOINT RightHandMiddle1
									{
										OFFSET -14.26970 0.00000 -0.09147
										CHANNELS 3 Zrotation Xrotation Yrotation
										JOINT RightHandMiddle2
										{
											OFFSET -6.17441 0.00000 0.00000
											CHANNELS 3 Zrotation Xrotation Yrotation
											JOINT RightHandMiddle3
											{
												OFFSET -3.56743 0.00000 0.00000
												CHANNELS 3 Zrotation Xrotation Yrotation
												End site
												{
													OFFSET 0.00000 0.00000 0.00000
												}
											}
										}
									}
									JOINT RightHandRing1
									{
										OFFSET -12.69180 0.00000 -3.06433
										CHANNELS 3 Zrotation Xrotation Yrotation
										JOINT RightHandRing2
										{
											OFFSET -5.62556 0.00000 0.00000
											CHANNELS 3 Zrotation Xrotation Yrotation
											JOINT RightHandRing3
											{
												OFFSET -3.56744 0.00000 0.00000
												CHANNELS 3 Zrotation Xrotation Yrotation
												End site
												{
													OFFSET 0.00000 0.00000 0.00000
												}
											}
										}
									}
									JOINT RightHandPinky1
									{
										OFFSET -11.11390 0.00000 -6.03719
										CHANNELS 3 Zrotation Xrotation Yrotation
										JOINT RightHandPinky2
										{
											OFFSET -4.52789 0.00000 0.00000
											CHANNELS 3 Zrotation Xrotation Yrotation
											JOINT RightHandPinky3
											{
												OFFSET -2.46976 0.00000 0.00000
												CHANNELS 3 Zrotation Xrotation Yrotation
												End site
												{
													OFFSET 0.00000 0.00000 0.00000
												}
											}
										}
									}
								}
							}
						}
					}
					JOINT LeftShoulder
					{
						OFFSET 0.01000 7.91373 5.19711
						CHANNELS 3 Zrotation Xrotation Yrotation
						JOINT LeftArm
						{
							OFFSET 18.41580 0.00000 0.00000
							CHANNELS 3 Zrotation Xrotation Yrotation
							JOINT LeftForeArm
							{
								OFFSET 29.11090 0.00000 0.00000
								CHANNELS 3 Zrotation Xrotation Yrotation
								JOINT LeftHand
								{
									OFFSET 24.65040 0.00000 0.00000
									CHANNELS 3 Zrotation Xrotation Yrotation
									JOINT LeftHandThumb1
									{
										OFFSET 5.35114 -0.85590 3.97906
										CHANNELS 3 Zrotation Xrotation Yrotation
										JOINT LeftHandThumb2
										{
											OFFSET 4.52789 0.00000 0.00000
											CHANNELS 3 Zrotation Xrotation Yrotation
											JOINT LeftHandThumb3
											{
												OFFSET 2.46977 0.00000 0.00000
												CHANNELS 3 Zrotation Xrotation Yrotation
												End site
												{
													OFFSET 0.00000 0.00000 0.00000
												}
											}
										}
									}
									JOINT LeftHandIndex1
									{
										OFFSET 14.26970 0.00000 2.88139
										CHANNELS 3 Zrotation Xrotation Yrotation
										JOINT LeftHandIndex2
										{
											OFFSET 5.48836 0.00000 0.00000
											CHANNELS 3 Zrotation Xrotation Yrotation
											JOINT LeftHandIndex3
											{
												OFFSET 3.01859 0.00000 0.00000
												CHANNELS 3 Zrotation Xrotation Yrotation
												End site
												{
													OFFSET 0.00000 0.00000 0.00000
												}
											}
										}
									}
									JOINT LeftHandMiddle1
									{
										OFFSET 14.26970 0.00000 -0.09147
										CHANNELS 3 Zrotation Xrotation Yrotation
										JOINT LeftHandMiddle2
										{
											OFFSET 6.17440 0.00000 0.00000
											CHANNELS 3 Zrotation Xrotation Yrotation
											JOINT LeftHandMiddle3
											{
												OFFSET 3.56744 0.00000 0.00000
												CHANNELS 3 Zrotation Xrotation Yrotation
												End site
												{
													OFFSET 0.00000 0.00000 0.00000
												}
											}
										}
									}
									JOINT LeftHandRing1
									{
										OFFSET 12.69180 0.00000 -3.06433
										CHANNELS 3 Zrotation Xrotation Yrotation
										JOINT LeftHandRing2
										{
											OFFSET 5.62556 0.00000 0.00000
											CHANNELS 3 Zrotation Xrotation Yrotation
											JOINT LeftHandRing3
											{
												OFFSET 3.56744 0.00000 0.00000
												CHANNELS 3 Zrotation Xrotation Yrotation
												End site
												{
													OFFSET 0.00000 0.00000 0.00000
												}
											}
										}
									}
									JOINT LeftHandPinky1
									{
										OFFSET 11.11390 0.00000 -6.03719
										CHANNELS 3 Zrotation Xrotation Yrotation
										JOINT LeftHandPinky2
										{
											OFFSET 4.52789 0.00000 0.00000
											CHANNELS 3 Zrotation Xrotation Yrotation
											JOINT LeftHandPinky3
											{
												OFFSET 2.46976 0.00000 0.00000
												CHANNELS 3 Zrotation Xrotation Yrotation
												End site
												{
													OFFSET 0.00000 0.00000 0.00000
												}
											}
										}
									}
								}
							}
						}
					}
					JOINT pCube4
					{
						OFFSET 0.00000 10.91090 1.10792
						CHANNELS 3 Zrotation Xrotation Yrotation
						End site
						{
							OFFSET 0.00000 0.00000 0.00000
						}
					}
				}
			}
		}
	}
	JOINT RightUpLeg
	{
		OFFSET -9.98441 0.00000 0.00000
		CHANNELS 3 Zrotation Xrotation Yrotation
		JOINT RightLeg
		{
			OFFSET 0.00000 -42.11790 0.00000
			CHANNELS 3 Zrotation Xrotation Yrotation
			JOINT RightFoot
			{
				OFFSET 0.00000 -45.00020 -0.00001
				CHANNELS 3 Zrotation Xrotation Yrotation
				JOINT RightForeFoot
				{
					OFFSET 0.00000 -3.74820 0.00000
					CHANNELS 3 Zrotation Xrotation Yrotation
					JOINT RightToeBase
					{
						OFFSET 0.00000 0.06325 14.43120
						CHANNELS 3 Zrotation Xrotation Yrotation
						End site
						{
							OFFSET 0.00000 0.00000 0.00000
						}
					}
				}
			}
		}
	}
	JOINT LeftUpLeg
	{
		OFFSET 9.98441 0.00000 0.00000
		CHANNELS 3 Zrotation Xrotation Yrotation
		JOINT LeftLeg
		{
			OFFSET 0.00000 -42.11800 0.00000
			CHANNELS 3 Zrotation Xrotation Yrotation
			JOINT LeftFoot
			{
				OFFSET 0.00000 -45.00070 0.00000
				CHANNELS 3 Zrotation Xrotation Yrotation
				JOINT LeftForeFoot
				{
					OFFSET 0.00000 -3.74824 0.00000
					CHANNELS 3 Zrotation Xrotation Yrotation
					JOINT LeftToeBase
					{
						OFFSET 0.00000 0.06325 14.43110
						CHANNELS 3 Zrotation Xrotation Yrotation
						End site
						{
							OFFSET 0.00000 0.00000 0.00000
						}
					}
				}
			}
		}
	}
}
MOTION
Frames: 4
Frame Time: 0.050000
0.007464865141423977 0.04681983569299799 0.022616646223397163 0.02898327997382722 -0.04889368112853581 0.020772974638250043 -3.684130899609896 2.1120158051104965 -0.7393148746390161 -1.1848752943221765 3.94374786818257 0.4316796967091478 -1.3494526151825899 -1.440483835130445 -1.3914441020631272 0.1984520024242185 0.6767349095496141 -0.8939815096477448 0.00787619933946453 11.34402604050021 -0.7544386970889265 0.23026282599378892 -1.9625717434273424 -3.4938544600908354 0.7125017206730896 -18.604670819161925 -0.34204647796479 -4.650218995989873 1.6509908312124484 -14.9013771538131 74.54172433301777 24.39163277869186 -0.020322635132633538 -2.5244457378574134 1.8783060010244697 40.23721958468917 19.59813175542608 -0.08689008555036007 -3.716329819063529 4.5373299716039535 -0.12223385185287058 -1.572901094899286 0.02489701708881281 -0.009856448139794765 -56.24880739139859 0.029686049276234364 0.02381558678039543 -56.21602278141184 -38.81462814132651 0.03980467094276505 -0.031568597908518216 -0.03884777860158816 0.03175063972581705 -0.04423405373999775 0.0347576411555916 -0.04612904790986757 -0.007855024124371751 -36.725335803454556 -0.009296134519627412 0.03400339862073671 0.027345888796923432 0.03696494723941692 0.003902877914151094 -0.016966806054334677 -0.03464579807603204 -0.0005727334383988197 -19.787126768175966 0.03174513886731339 0.004489212005718482 -0.0006633145955045774 -0.020512858898945236 -0.00023557932120939518 -0.04058056234453999 -0.021990543539179355 -0.03672529180171065 24.096495071646153 -0.04496241757884542 -0.013695542665026957 28.857852937360843 -0.042963371393257704 -0.02237259135791462 28.904676602415215 -0.0409659638982241 0.03293585564445547 5.074219138939984 1.2187297834067539 12.813432366837805 -71.74175220493898 26.682989556046344 -6.180148431414602 1.4070989013691522 -7.746201340803638 -40.66427127778084 -8.279367168910284 1.4719565346305048 2.4466631682797213 -0.4956127862918743 0.06414190779471894 -8.075761127571393 -0.008381715545666184 0.04345568712933322 44.606857674907175 0.03884963625702516 0.003320380859764826 44.571725731628156 12.452176326893795 0.004139449162917681 0.009358179144645455 0.022062454461530913 0.0031675261682124044 0.002350220402016779 -0.009304679182840298 0.014956639191017982 -0.005861258322500687 11.130961295671435 -0.023229464028206217 -0.013362268105173408 -0.049374521691896656 0.0016615518221090668 -0.039672643218264844 0.001684548451158526 0.02602267589303538 -0.019200024999088253 4.759631685914489 0.009780809041472374 -0.008953644034004298 -0.020695753737418023 -0.028526989260320552 -0.037426821131888645 0.0113854871336172 0.046517623124421564 0.04489353621214575 -5.61384087347406 0.029951671414824174 -0.022383069626668004 -6.735632077729406 -0.020507502223231493 -0.02625967537721161 -6.714817170490662 -0.0006902242928280449 -0.04659284652181349 -0.04928699843499909 -0.015811526147146805 0.012031228404665023 8.055345052952331 3.4777389857618313 -19.180133419854094 0.006517911168046593 10.366836000473075 -0.03170448286284103 -5.611928361507999 -15.666875176102371 3.192111305843484 0.047053014796127855 0.009736488879111528 0.017584263964731225 -0.03853680224426343 4.669166272970633 -0.008841245767109799 12.472569260042158 -8.19233105325031 6.9085664590315465 -0.043226017428202486 46.41157218389561 -0.0408440407816861 -4.312441194769168 -14.730152357875793 -3.85308980180963 0.030727151890737978 -0.012653744345385295 0.0069180007461582356 0.0238300409016317 -10.77016656897703 -0.009238180610023832 
-0.004425564483667518 -0.04772177964750465 0.014016551543349699 0.016475088707898027 0.01210355003360026 0.04731724835936074 -3.5101390002564785 2.2078535355762545 -0.8028464857632294 -1.1667411082022126 3.9062736252142995 0.36559084427276056 -1.361489492031407 -1.4619572480841716 -1.1939005983850561 0.16611590629951847 0.6800941013966653 -0.847061971906989 -0.029052529306567862 11.38985336163215 -0.7798877497610793 0.16675621961026024 -1.918920754701117 -3.438604752747925 0.6824904194910704 -18.39419144642289 -0.36231778767923134 -4.616270260771641 1.6146799093042625 -14.789556416390973 73.95843607277486 24.42455024002 0.6109441511221817 -2.4806439743568616 1.726827867723525 42.15178846766427 19.828551484580675 -0.1546670244072952 -3.8202385121407425 4.518370075596042 -0.16220779604192462 -1.6163055089822613 0.0015896610243459582 0.03785032782405926 -56.24370135471975 -0.02081886184784913 -0.016225964765653574 -56.21283614397631 -38.749824506416694 -0.013475256454333732 0.04751715495754017 0.02923628894187784 0.04000499707506467 -0.020648304805088627 0.03543938703830566 -0.021544388111463263 -0.033971978766907183 -36.67697985799834 -0.0227335145773233 0.0013743011219244105 0.040943716407659494 0.012089970388715267 0.04987238033151074 -0.042169457765171864 0.008430693308796176 0.02250155820450955 -19.753120404582535 0.01752288290010214 -0.005664300986044564 -0.021403775373133413 -0.006046383923179255 -0.04083746718468381 -0.014272680783814655 -0.031062038249040153 -0.023847834751953106 24.026085182006344 0.016495084196605964 -0.005886842152220745 28.858810832708464 0.02142402693261312 0.010348454693633078 28.844333231716327 0.011342552627618276 -0.004510430068551285 5.021834583015238 1.2151607660497175 12.87031782694012 -71.56434757843263 26.633533819415216 -6.555884122185269 1.6607348561550883 -7.867431721642249 -42.5996452177639 -8.508577738539172 1.4915596507359579 2.311551545709494 -0.46282111198635506 0.0400806406086196 -8.165059229631204 0.04048765780368668 0.009769956084168002 44.59549339222702 0.011055014062820383 -0.01118274491439905 44.556677307439585 12.424700543273174 0.03610960860603749 0.04266863720614479 -0.03513497106400263 0.01509769815010234 0.041968951051209354 -0.007856611971074658 -0.005457963274945776 0.00024789994031539184 11.103802606604823 -0.02586364323269642 -0.002287942045738048 0.03559215634300989 0.020275433267131337 -0.0059424517775330254 -0.039726201509506884 -0.005089819947109156 0.03903244593402397 4.745843245479634 0.009272909937473024 -0.04895213009396186 -0.02422289235472359 0.011002338265513896 -0.03927938031491615 0.0206504771380635 -0.023308771737453108 -0.046838523351216604 -5.557093811324308 0.012421973951069634 0.0069223070390145 -6.692740522524547 -0.03363120834129009 0.045804126568524534 -6.734686623233322 0.022302700021046232 -0.009395467489647093 -0.03944840819208446 -0.011239215962613775 -0.03925351999720608 8.05055390151582 3.5259686401015546 -19.18112247578137 0.042075658983693996 10.38121891272796 0.026971774992806657 -5.665217374357403 -15.700099585183558 3.2338090831237 -0.04188599300541458 0.017933972930078704 -0.012310753539406465 -0.008549319866867649 4.694953653805353 -0.02252768148815576 12.49327060946129 -8.2139062354063 6.857052128782591 -0.032875400499249245 46.36246317417666 -0.006896181949483838 -4.289438435705983 -14.739859449716121 -3.8426169545102256 -0.03141086304228249 -0.02453519158048156 0.005435785835529706 0.04050751739963879 -10.74780126213955 0.027564686119821016 
-0.04673641019708785 -0.04509853296730983 -0.021916011943046723 -0.000833350850653135 0.030750508211121092 -0.002752811816506228 -3.4028841603562503 2.1811628873199167 -0.7816217698422143 -1.089460858540127 3.888226486531455 0.3975712621751633 -1.3262121218510627 -1.4993021703999951 -1.137392370058027 0.18576120186673906 0.5704302823266274 -0.8750833431372717 0.0024365828397410923 11.546560919066208 -0.7891347200588253 0.20224253692006822 -1.6858263874066644 -3.650850274094561 0.6946432170738007 -18.122555781331357 -0.3996516720266772 -4.688508318566906 1.7118758803468872 -14.588998375522868 73.23034834645799 24.33915753928433 1.791827410160468 -1.7222763777922316 1.454781220915787 45.269587712066865 19.67491587683936 -0.0941521121618098 -3.839888062943934 4.512776451229795 -0.156596932525448 -1.5552438312644277 0.0427003957995446 0.03362219716470324 -56.23367316420979 0.002016610397882643 0.0473682839104137 -56.21308521355905 -38.78437082944449 0.00360035421042988 -0.019195892602502197 0.021608460085388165 0.02111383424256154 0.0019199376957718154 0.029579235658663692 0.012276451322112511 -0.001998159597782489 -36.6441145880619 -0.048855976833383136 0.007760240889264381 0.025965297058667257 0.007926725536544329 0.023975082192676314 0.00013155480607291277 0.014395568870025272 -0.00043041581604169604 -19.77231395710821 0.02214957535158272 -0.00322494332640561 -0.016592272538604565 -0.0025218547466992927 -0.040693231295176664 0.02879400162585191 0.005760312701842338 -0.043501430814585504 24.008894260938586 0.014311065210368628 0.049750699162659916 28.853753726659143 -0.011326351602417049 -0.038276665558914826 28.855704448086225 -0.042037448504873676 -0.001668856344700735 5.208462320356222 1.2423513736974927 12.773026557026347 -70.65814025732779 26.722606149356736 -7.586485487312141 0.6715546660966265 -7.668466377250724 -46.76615707727655 -8.560697853620686 1.058960575146302 2.4284033608904245 -0.45380195032212395 0.04700000825873893 -8.081418445733528 0.009389102300780073 -0.02720526985424531 44.61371103442949 0.03740180036359468 0.02119286085667863 44.53782997167387 12.464176633635898 0.019267474619264015 0.03462576819528295 0.00948662334244691 0.0006043365463977566 0.028514412289581063 0.014011996598919356 0.020112245966901164 -0.01946194451923698 11.102680402704939 0.04014939544489217 0.014477545708474836 0.025528779597576646 0.010665835575920955 0.008073914519821465 0.03870671044133103 -0.022603990826716727 0.043329259990392444 4.78582212669967 -0.02611032915817576 -0.011306597674478423 -0.011976385036808349 -0.003396777848574954 0.02445131412093531 -0.02331463903676686 0.02787919408533313 -0.010229665762881592 -5.564434565181778 -0.01731218642331916 -0.012476801923545456 -6.694400958662219 -0.011586282521012615 0.035961073002233016 -6.76167215141132 0.026101570915890982 -0.03839731468284388 0.0008621399998455859 0.0423977362964128 -0.006822479577694364 7.996304738773305 3.456225587671223 -19.186489919209983 0.01603208189996985 10.399374430790658 0.03936480698692939 -5.640267382068006 -15.701951310120172 3.1859289747734847 -0.039847087188038706 -0.01712052426059805 0.022649261121059784 -0.033015454275756716 4.692584122902388 -0.0028862152520436482 12.410330113482587 -8.188933232277082 6.887462309855499 -0.008385260178955342 46.42563034525901 -0.004206230092832466 -4.361486276454165 -14.742744107649857 -3.8325613134899283 -0.047429220045567676 0.04587939423158557 -0.036562610795805556 -0.03544256238545556 -10.746337327681449 -0.048749324019134704 
-0.019747390097652598 0.023667236616081985 0.015022995128730648 -0.005745049409423186 0.017263395325305474 -0.032343077287789575 -3.2126422042812544 2.1525042030039847 -0.7701514516651904 -1.0613250613451135 3.8483042435830903 0.4018368659761834 -1.3051886278013107 -1.5022931418077317 -1.1266789290708568 0.18072163218116757 0.5502195262485712 -0.8280519206745268 0.023939234890654332 11.71710261494189 -0.8943243222868104 0.18360857200767702 -1.481189741051846 -3.8798323523250446 0.6868818046624722 -17.610050054554353 -0.38443685325643595 -4.699592829692368 1.6485469949454112 -14.3847852754086 72.60760026943444 24.13860727319963 2.9198251689069044 -0.18595169530494068 1.2177488167785062 49.610770951076816 19.438926791467036 -0.11842371181349715 -3.7635617298940294 4.527187943255916 -0.1321681673288933 -1.553128370239155 -0.03293217502820638 -0.005518703653938648 -56.26639551173336 0.015692040613614962 0.006139831616294171 -56.21627279891169 -38.7575090030143 -0.0131486154595993 0.040534349127518673 -0.02240719862513958 -0.006174130089110659 0.02569905899548416 0.008576092985744145 0.0017548943471989776 -0.03428364036217262 -36.65565658136781 -0.011042001790892106 -0.021485623502947384 -0.005857670553475903 0.025026554089639434 -0.034577900600473 0.014096197346092548 0.02656181327055528 0.033071531507102854 -19.761847752744057 -0.020829518012992883 0.017120690663810514 0.04453939275087048 0.028822732479300738 0.008655503251152405 0.02709220979945885 -0.01808807394124316 -0.022901000652208733 24.04458447440907 0.02624138748004564 0.0398140779800568 28.859704584179358 0.025400658885670554 -0.03722489067042035 28.852811400454446 0.037588770453262435 0.015475613641253627 5.4343110097228715 1.2897694967561935 12.664572048607196 -69.3614788822948 27.204517880772382 -8.931340439519238 -1.717869858261392 -6.922361843087009 -53.80284648081188 -8.721467250359844 -0.06069282849522084 2.7679887324484707 -0.4442882790754809 0.0707154038845987 -8.16678428725999 -0.04181884787163582 -0.014774079742196841 44.58522604221816 0.0360771058272711 0.03534601617439016 44.58118363668561 12.466994097461486 0.027891023579220825 0.03177403817117455 0.03768653233177262 0.03815687187133407 -0.012419711487352275 0.03367283260830505 0.00475188275725861 0.04824844101500623 11.058940804637821 0.01883325232258654 0.0039632859717161515 -0.013776586095618635 0.006533688316253055 0.022785715611247714 0.0023257004981254814 -0.01641090743408474 -0.009377013748743947 4.765032808310279 -1.390191544720865e-05 0.017116287723362815 -0.013311146963077936 0.03404833205206829 0.01678201992099132 0.015656457849724758 -0.004255013241838824 -0.027903864333416545 -5.612179809322502 -0.035318688413485747 -0.014466209582207129 -6.737361654828903 -0.02803264875498421 0.02370630759041911 -6.726664266687095 -0.021221542895529116 -0.04776676942039025 -0.02116046594414861 0.006714774797389836 0.045699755353873314 8.055661035788887 3.503235938390293 -19.172293578067986 -0.01836318495173547 10.443471561397365 0.03155336476833411 -5.5775340306109396 -15.650441048757678 3.2282220380958058 -0.027535543244017698 0.03652219036442606 -0.0032210948169952044 0.02879317094552431 4.662612481129157 -0.0030020213404921576 12.504568766682773 -8.256953057679135 6.929396513519716 0.04677683688993041 46.38243316635201 -0.04208516272218764 -4.332049911849343 -14.730559478691893 -3.8269270981937114 0.04455059154162544 0.012946634662443253 -0.0010310890159781587 0.005084692690420776 -10.771016641325152 0.02860917663131145 
